<?xml version="1.0" encoding="utf-8"?>
<!-- Generator: Adobe Illustrator 23.1.0, SVG Export Plug-In . SVG Version: 6.00 Build 0)  -->
<svg version="1.1" xmlns="http://www.w3.org/2000/svg" xmlns:xlink="http://www.w3.org/1999/xlink" x="0px" y="0px"
	 viewBox="0 0 960 1080" style="enable-background:new 0 0 960 1080;" xml:space="preserve">
<style type="text/css">
	.st0{fill:#F3E7D9;}
	.st1{fill:#33A86D;}
	.st2{fill:#288453;}
	.st3{fill:#EE5D4F;}
	.st4{fill:#121721;}
	.st5{fill:#7A462F;}
	.st6{fill:#D77D5B;}
	.st7{fill:#B44C29;}
	.st8{fill:#A96443;}
	.st9{fill:#F5894E;}
	.st10{fill:#F7BC4B;}
	.st11{fill:none;stroke:#34283A;stroke-width:8;stroke-miterlimit:10;}
	.st12{fill:none;stroke:#4B3355;stroke-width:5;stroke-miterlimit:10;}
	.st13{fill:#34283A;}
	.st14{fill:#4B3355;}
	.st15{fill:none;stroke:#4B3355;stroke-width:3;stroke-miterlimit:10;}
	.st16{fill:none;stroke:#34283A;stroke-width:3;stroke-miterlimit:10;}
	.st17{fill:none;stroke:#665070;stroke-width:5;stroke-miterlimit:10;}
	.st18{fill:#856792;}
	.st19{fill:#665070;}
	.st20{fill:#493253;}
	.st21{fill:none;stroke:#34283A;stroke-width:5;stroke-miterlimit:10;}
	.st22{fill:#BB83C3;}
	.st23{fill:#FFACFF;}
	.st24{fill:none;stroke:#665070;stroke-width:3;stroke-miterlimit:10;}
	.st25{fill:none;stroke:#34283A;stroke-miterlimit:10;}
	.st26{fill:none;stroke:#34283A;stroke-width:2;stroke-miterlimit:10;}
	.st27{fill:#9E54C7;}
	.st28{fill:none;stroke:#34283A;stroke-width:7;stroke-miterlimit:10;}
	.st29{fill:#CC6D3D;}
	.st30{fill:none;stroke:#554B5A;stroke-miterlimit:10;}
	.st31{fill:#1D2538;}
	.st32{fill:#273252;}
	.st33{fill:none;stroke:#992C29;stroke-miterlimit:10;}
	.st34{fill:#29ABE2;}
	.st35{fill:#CE9436;}
	.st36{fill:#3E4C6F;}
	.st37{fill:none;stroke:#34283A;stroke-width:2;stroke-linecap:round;stroke-linejoin:round;stroke-miterlimit:10;}
</style>
<g id="cloud">
	<path class="st0" d="M442.18,435.89c0,0-242.36,46.69-298.27,66.25C88,521.7,65.1,541.71,93.17,499.79s49.57-68.94,72.16-62.74
		c0,0-7.59-51.64,16.57-69.39s141.82-5.3,141.82-5.3s25.78-121.33,47.47-142.42c21.69-21.09,109.19-4.75,109.19-4.75
		s-20.16-56.98,1.14-87.63s56.46-38.65,99.1-31.97c42.64,6.68,141.34,34.24,123.66,177.51c0,0,19.97-37.58,61.28-35.53
		c41.31,2.05,62.36,69.07,47.09,106.21c0,0,57.24-14.93,66.21,6.83c8.96,21.76-137.39,49.86-159.59,55.53
		c-15,3.83,5.33-17.16,5.33-17.16L442.18,435.89z"/>
</g>
<g id="ground">
	<path class="st1" d="M443.2,841.84c4.75,0,132.92-22.15,196.22-22.15s109.19,9.49,109.19,9.49l-69.63,31.65
		c0,0,96.46,36.22,139.25,49.05c47.47,14.24,97.32,22.95,102.07,34.81c4.75,11.87-22.95,17.41-70.42,30.07
		c-47.47,12.66-58.55,23.74-131.34,25.32c-72.79,1.58-145.58,1.98-198.99,4.35c-39.55,1.76-133.71-8.31-149.54-13.05
		c-15.82-4.75,1.19-23.74,10.68-23.74c9.49,0-153.1-14.24-192.26-32.04c-34.87-15.85,2.37-33.23,58.15-36.79
		C166.32,903.93,191.19,870.8,443.2,841.84z"/>
	<path class="st1" d="M171.02,909.09c-1.58-6.33-24.53-51.43-7.91-36.4s12.66,32.44,12.66,32.44s2.37-37.98,11.08-22.95
		c8.7,15.03,15.03,26.9,15.03,26.9s-12.66,30.07-29.27,3.96"/>
	<path class="st2" d="M309,926c0,0,30.15,13.15,62.2,20.27c32.04,7.12,67.65,24.92,135.3,23.74s60.66-27.43,60.66-27.43
		s128.84,25.85,177.49,9.23c48.66-16.62-89.8-87.43-176.44-106.42s-86.64-18.99-86.64-18.99L309,926"/>
</g>
<g id="K_right_leg">
	<g>
		<path class="st3" d="M581.85,841.27c0,0-7.39-1.48-18.48,1.48c-11.09,2.96-9.61,11.83-8.87,14.05c0.74,2.22,10.35,6.65,31.79,5.18
			s21.99-2.79,34.01-2.22c13.08,0.62,7.39-20.7,3.7-27.36C620.3,825.75,581.85,841.27,581.85,841.27z"/>
		<path class="st4" d="M583.39,830.96c0,0-6.3-1.62-17.39,1.34s-12.25,17.37-11.51,19.59c0.74,2.22,10.35,6.65,31.79,5.18
			s25.49-0.44,37.39-2.22c6.56-0.98,4.01-20.7,0.31-27.36S583.39,830.96,583.39,830.96z"/>
	</g>
	<path class="st4" d="M640.12,637.5c0,0-28.05-3.95-43.63-6.67c-15.58-2.72-41.29-9.3-45.19,3.23c-3.9,12.53-1.56,38.28,23.37,43.11
		s82.55,20.38,96.61,12.29S698.56,649.87,640.12,637.5z"/>
	<path class="st4" d="M559.2,649.53c0,0-9.04,1.06-8.46,15.51c0.58,14.45,12.41,48.35,11.62,56.23s7.1,53.61,9.46,71.74
		c2.37,18.13,0.79,34.69,4.73,42.57c3.94,7.88-3.94,6.31,14.19,6.31c18.13,0,29.17-2.37,32.32-4.73c3.15-2.37,0.79-22.07,0.79-22.07
		s-3.94-9.46-3.94-11.04c0-1.58,2.37-47.3,0-59.13c-2.37-11.83-6.31-74.9-20.5-89.09C585.21,641.64,559.2,649.53,559.2,649.53z"/>
</g>
<g id="trunk_2">
	<path class="st5" d="M199.11,678.78l-5.93,145.65l-3.18,95.9l40,11l72,13l7-12c0,0,42,2,49,2s44.58-22.34,44.58-22.34L401,896.16
		l42.73,6.86l47.34-28.75l-19.78-217.85l-121.45-11.6L199.11,678.78z"/>
	<polygon class="st6" points="347.73,636.91 254.89,646.41 199.11,678.78 292.27,707.43 308,702.29 345.09,699.15 464.56,676.21 
		471.22,656.56 	"/>
	<polygon class="st7" points="344.21,645.35 277.34,654.8 237.16,675.79 304.27,694.36 315.6,691.03 342.31,685.7 428.37,670.83 
		433.17,658.09 	"/>
	<polygon class="st8" points="302,944.33 298.41,809.92 292.47,757.18 292.34,707.46 308.1,702.38 317.79,749.66 324.68,827.58 
		334.01,933.09 309,932.33 	"/>
	<polygon class="st8" points="401.4,896.36 443.99,903.02 429.09,773.92 422.63,760.6 411.29,688.74 415.24,811.24 421.04,884.16 	
		"/>
	<polygon class="st8" points="351.95,929.53 355.18,901.04 352.48,878.49 354.64,844.08 358.96,878.49 363.81,896.3 362.73,922.41 	
		"/>
	<polygon class="st8" points="344.69,699.55 341.13,762.71 352.21,807.81 367.64,836.3 348.65,760.74 365.13,695.46 	"/>
	<polygon class="st8" points="239.86,927.29 214.54,920.96 235.11,866.76 247.77,855.68 241.44,825.62 256.87,811.37 261.22,755.59 
		263.59,795.95 263.2,816.91 251.33,827.2 259.64,866.76 250.93,881 	"/>
	<polygon class="st8" points="277.44,795.55 283.37,832.34 275.07,862.01 279.81,892.87 282.19,859.64 288.12,827.59 	"/>
	<polygon class="st8" points="232.74,689.53 246.19,694.27 246.19,718.01 239.86,761.92 243.81,788.03 239.86,798.32 230.36,760.34 
		235.11,716.43 	"/>
	<path class="st2" d="M320.82,928.88c0,0,10.35-15.93,11.34-8.21c0.99,7.72-0.99,9.65-0.99,9.65s13.8-20.76,11.83-11.58
		c-1.97,9.17-2.46,11.58-2.46,11.58s4.44-9.65,7.89-8.21s0.49,6.28,0.49,6.28s25.14-21.24,25.14-15.93s0,5.31,0,5.31
		s7.89-11.58,8.87-7.24c0.99,4.34-2.46,8.21-2.46,8.21s16.76-20.76,17.74-15.93c0.99,4.83-2.96,5.31-2.96,5.31
		s11.83-12.07,7.39-2.41c-4.44,9.65-18.24,28.48-47.81,28.96C325.26,935.16,320.82,928.88,320.82,928.88z"/>
	<path class="st2" d="M441.75,899.33c0,0,0.13-8.84,3.03-9.23c2.9-0.4,1.19,2.37,1.19,2.37s3.03-13.19,5.54-10.95s0.4,6.73,0.4,6.73
		s1.19-5.01,2.51-4.62c1.32,0.4,1.19,2.51,1.19,2.51s3.43-12.13,6.59-10.68c3.16,1.45-0.66,5.8-0.66,5.8s1.85-5.27,5.01-3.43
		c3.16,1.85,0.53,9.89,0.53,9.89s3.96-16.62,8.44-16.35c4.48,0.26-1.98,12.13-1.98,12.13L441.75,899.33z"/>
</g>
<g id="leaves">
	<g>
		<path class="st5" d="M139.12,832.13c0,0,23.87,17.78,28.7,89.57l2.35-1.84c0,0-0.36-58.23-26.86-89.35L139.12,832.13z"/>
		<path class="st9" d="M160.33,814.11c-1.59-5.59-6.73-6.99-19.23,2.29c-12.5,9.28-27.6,21.33-28.06,31.31
			c-0.45,9.97,12.33,4.58,25.75-6.13C152.23,830.87,161.92,819.71,160.33,814.11z"/>
		<path class="st10" d="M159.41,812.94c-1.59-5.59-6.73-6.99-19.23,2.29c-12.5,9.28-27.6,21.33-28.06,31.31
			c-0.45,9.97,12.33,4.58,25.75-6.13S161,818.53,159.41,812.94z"/>
		<path class="st3" d="M141.96,825.76c-0.41-1.45-1.74-1.81-4.97,0.59c-3.23,2.4-7.13,5.51-7.25,8.09
			c-0.12,2.58,3.18,1.18,6.65-1.58C139.87,830.09,142.37,827.21,141.96,825.76z"/>
		<path class="st2" d="M151.63,847.2c0,0-5.77-13.72,8.22-15.21c14-1.49,23.5,12.16,23.5,12.16s-16.83,5.13-22.36,4.72
			C155.47,848.46,151.63,847.2,151.63,847.2z"/>
		<path class="st2" d="M152.66,849.71c0,0-11.78,7.33-10.21,18.42c1.57,11.08,3.93,11.37,3.93,11.37S156.65,860.56,152.66,849.71z"
			/>
	</g>
	<path class="st1" d="M233.26,927.81c0,0-6.33-24.53,3.16-39.56s11.87,27.69,7.91,35.6c0,0,9.49-34.02,20.57-23.74
		c11.08,10.29-3.16,28.48-3.16,28.48s8.7-17.41,14.24-8.7c5.54,8.7,0.79,26.11-16.62,18.2
		C241.97,930.19,233.26,927.81,233.26,927.81z"/>
	<path class="st1" d="M227.2,928.87c0,0-4.75-43.52-11.87-31.65C208.21,909.09,223.24,935.99,227.2,928.87z"/>
	<path class="st1" d="M281,917c0,0,12.66,5.54,9.49-6.33C287.33,898.8,272.3,910.67,281,917z"/>
	<path class="st1" d="M192.12,888.78c-7.38,0.26-8.82,35.88,3.24,35.88C207.42,924.66,199.51,888.52,192.12,888.78z"/>
	<path class="st1" d="M207.81,924.25c0,0-15.03-27.69-0.79-19.78S220.47,937.7,207.81,924.25z"/>
	<g>
		<path class="st2" d="M181.31,872.43c0,0,5.54,14.24,13.45,7.91c7.91-6.33,0-18.2-6.33-15.03
			C182.1,868.47,181.31,872.43,181.31,872.43z"/>
		<path class="st2" d="M186.85,843.15c0,0,9.49,9.49,15.03,0s-3.16-12.66-10.29-9.49C184.47,836.82,186.85,843.15,186.85,843.15z"/>
		<path class="st2" d="M207.42,866.89c6.33-6.33-0.79-15.03-8.7-11.87C190.8,858.19,201.09,873.22,207.42,866.89z"/>
		<path class="st2" d="M205.84,866.89c0,0-1.58,7.91,4.75,5.54C216.91,870.05,213.75,862.93,205.84,866.89z"/>
		<path class="st2" d="M196.87,881.66c0.26,9.23,8.18,7.91,8.97,0.53C206.63,874.8,196.6,872.43,196.87,881.66z"/>
	</g>
	<g>
		<path class="st2" d="M179.99,789.48c1.58,5.54,12.13,9.23,9.23-2.11C186.32,776.03,178.41,783.95,179.99,789.48z"/>
		<path class="st2" d="M197.4,774.71c-7.91,0-12.92,11.87,2.9,8.97C216.12,780.78,205.31,774.71,197.4,774.71z"/>
		<path class="st2" d="M200.56,730.41c-6.07-1.85-18.73,6.07-8.7,8.18C201.88,740.69,206.63,732.25,200.56,730.41z"/>
		<path class="st2" d="M188.96,744.65c-5.01-0.53-12.13,7.91,0,7.65S193.97,745.18,188.96,744.65z"/>
		<path class="st2" d="M188.43,758.63c-3.96,4.75-0.26,16.62,6.86,8.44C202.41,758.89,192.38,753.88,188.43,758.63z"/>
	</g>
	<g>
		<path class="st5" d="M121.97,879.29c0,0,9.23,26.64,41.67,31.91l-0.79-3.69c0,0-29.01-7.91-37.45-29.27L121.97,879.29z"/>
		
			<ellipse transform="matrix(0.866 -0.5 0.5 0.866 -422.7456 177.4349)" class="st9" cx="119.73" cy="877.57" rx="21.76" ry="8.42"/>
		
			<ellipse transform="matrix(0.866 -0.5 0.5 0.866 -421.726 177.0204)" class="st10" cx="119.46" cy="875.46" rx="21.76" ry="8.42"/>
		<ellipse transform="matrix(0.866 -0.5 0.5 0.866 -421.726 177.0204)" class="st3" cx="119.46" cy="875.46" rx="7.78" ry="3.01"/>
		<path class="st2" d="M131.2,890.89c0,0-10.29-1.05-11.34,8.7c-1.05,9.76,6.59,11.08,6.59,11.08S147.02,899.59,131.2,890.89z"/>
		<path class="st2" d="M142.01,896.96c0,0,1.58-6.86,7.12-4.75c5.54,2.11,3.69,5.27,3.69,5.27S145.97,902.49,142.01,896.96z"/>
	</g>
	<path class="st1" d="M171.55,910.66c0,0-6.18-18.98-12.92-18.98s-3.37,25.72-3.37,25.72s-3.46-0.24-16.94,1.45
		c-13.48,1.69-13.12,9.51-10.59,12.04s-5.9-3.37-26.12-0.84c-20.23,2.53,2.53,11.8,31.18,10.96s4.49-9.55,4.49-9.55
		s40.25-1.16,49.83-7.59C191.51,920.9,178.18,914.11,171.55,910.66z"/>
	<g>
		<path class="st1" d="M194.44,815.27c0,0,11.79-9.72,15.6-0.34s-8.88,15.88-12.86,10.03C193.2,819.11,194.44,815.27,194.44,815.27z
			"/>
		<path class="st1" d="M190.13,853.41c0,0,12.92-3.65,13.12,7.34c0.2,10.99-8.94,9.5-13.61,3.26
			C184.96,857.78,190.13,853.41,190.13,853.41z"/>
		<path class="st1" d="M214.52,797.64c2.43,8.61-8.03,12.73-13.39,6.11C195.77,797.13,212.09,789.03,214.52,797.64z"/>
		<path class="st1" d="M211.96,843.55c0,0,2.48-7.68,6.85-2.52C223.17,846.2,216.93,850.87,211.96,843.55z"/>
		<path class="st1" d="M208.57,824.7c4.74-7.93,11-2.91,8.08,3.92S203.84,832.63,208.57,824.7z"/>
	</g>
	<g>
		<path class="st1" d="M427.06,848.5c0,0,11.79-9.72,15.6-0.34s-8.88,15.88-12.86,10.03S427.06,848.5,427.06,848.5z"/>
		<path class="st1" d="M422.74,886.64c0,0,12.92-3.65,13.12,7.34s-8.94,9.5-13.61,3.26C417.58,891.01,422.74,886.64,422.74,886.64z"
			/>
		<path class="st1" d="M447.14,830.87c2.43,8.61-8.03,12.73-13.39,6.11C428.39,830.36,444.71,822.26,447.14,830.87z"/>
		<path class="st1" d="M444.57,876.78c0,0,2.48-7.68,6.85-2.52C455.78,879.43,449.55,884.1,444.57,876.78z"/>
		<path class="st1" d="M441.19,857.93c4.74-7.93,11-2.91,8.08,3.92C446.36,868.68,436.45,865.86,441.19,857.93z"/>
	</g>
</g>
<g id="robot_left_leg">
	<path class="st11" d="M387.81,599.2c0,17.41,14.77,30.59,30.59,37.98"/>
	<polyline class="st12" points="432.23,620.42 394.04,603.42 433.18,641.55 386.02,626.09 422.33,648.25 370.93,628.67 	"/>
	<g>
		<path class="st13" d="M539.25,677.32c0.4,10.1,1.54,14.27-7.96,19.89c-9.49,5.61-21.34,2.84-26.46-6.19
			c-5.12-9.03-1.58-20.9,7.91-26.51C522.24,658.89,538.85,667.21,539.25,677.32z"/>
		<path class="st13" d="M533.48,867.45c0,0-5.3,4.98,1.03,7.37c5.88,2.22,17.33,11,32.66,16.87c12.43,4.76,13.5,5.45,15.94,3.24
			c2.32-2.1-0.37-8.65-9.62-15.04c-10.82-7.48-18.12-14.56-22-15.13C547.39,864.15,533.48,867.45,533.48,867.45z"/>
		<path class="st13" d="M404.96,627.42c-4.48,3.96-3.96,2.11-11.08,8.44c-10.9,9.69,41.67,32.44,57.49,40.35
			c15.82,7.91,34.29,12.13,44.31,10.02c10.02-2.11,10.02-17.93,28.48-17.41s-25.05-36.92-46.15-45.36s-57.49-20.04-61.19-20.04
			C413.13,603.42,409.44,623.46,404.96,627.42z"/>
		<path class="st14" d="M515.44,853.91c0,0,17.66,4.19,20.41,3.95c2.74-0.23,7.99-9.03,7.99-9.03s3.28-85.05,6.68-106.82
			c3.26-20.85,1.51-51.63,1.2-54.3c-0.31-2.66-8.68-6.32-21.32-9.49c-12.28-3.08-12.53,20.47-18.1,19.97
			c-5.58-0.5-7.98-1.85-10.46,5.26c-2.52,7.22,3.86,21.47,6.53,56.19C511.42,799.52,515.44,853.91,515.44,853.91z"/>
	</g>
</g>
<g id="robot_left_arm_1_">
	<g>
		<path class="st15" d="M457.58,567.9c0,0,8.32-5.1,4.02-22.05c-4.31-16.95-9.92-25.18-9.92-25.18"/>
		<path class="st16" d="M438.57,531.48c0,0,5.99,16.99,7.01,21.4c1.03,4.4,4.09,22.65,4.09,22.65"/>
		<path class="st17" d="M442.86,522.97c0,0,20.24,22.39-2.34,48.75"/>
		<path class="st16" d="M447.79,536.75c0,0-10.61,3.18-11.24,15.24c-0.63,12.05,12.65,19.55,17.27,17.15"/>
		<path class="st15" d="M453.88,566.75c0,0,17.64-26.22-12.53-38.25"/>
		<path class="st16" d="M436.3,563.92c0,0,8.46-7.21,17.91-3.79s9.09,11.24,9.09,11.24"/>
	</g>
	<g>
		<ellipse class="st13" cx="441.79" cy="550.19" rx="14.07" ry="17.91"/>
		<ellipse class="st13" cx="438.14" cy="550.92" rx="12.61" ry="17.91"/>
		<ellipse class="st18" cx="437.92" cy="550.67" rx="2.64" ry="5.36"/>
	</g>
	<g>
		<path class="st19" d="M496.9,631.43c-4.98,0.43,5.93,20.81,11.22,24.12c5.3,3.31,10.73,0.65,5.98-6.88
			C509.36,641.13,501.87,631,496.9,631.43z"/>
		<path class="st19" d="M535.32,662.26c-1.6,2.64-4.97,0.47-10.86-4.45c-5.89-4.93-22.74-26.04-18.46-29.33
			c4.28-3.29,20.05,17.64,22.56,20.35C531.06,651.53,536.91,659.61,535.32,662.26z"/>
		<path class="st19" d="M524.65,614.57c1.5-4.12,15.17,8.41,17.8,11.41s6.47,10.62,4.98,14.32c-1.48,3.7-6.24-3.54-14.15-11.71
			C525.36,620.43,523.15,618.69,524.65,614.57z"/>
		<path class="st19" d="M520.23,622.74c-2.71,5.66,18.85,25.77,23.52,27.04c4.67,1.27,7.86-4.01,0.43-10.9
			S522.93,617.08,520.23,622.74z"/>
		<path class="st19" d="M515.01,632.85c0,0,12.31,16.07,21.69,24.46c6.58,5.89,8.46-4.73-2.63-17.15
			C522.99,627.75,512.57,625.54,515.01,632.85z"/>
	</g>
	<path class="st20" d="M526.35,642.29c0,0-5.61-4.52-8.9-2.06c-3.29,2.46,4.37,7.67-3.43,7.53c-7.8-0.15-30.24-18.24-48.98-30.72
		c-18.74-12.48-44.46-26.75-40.9-29.76s11.64-2.04,12.33-9.57c0.69-7.53-6.97-14.11-0.8-20.26s24.65-4.08,40.38,4.84
		c15.73,8.92,58.95,48.4,63.05,56.62s0.67,15.75-2.49,19.99S528.95,643.25,526.35,642.29z"/>
	<path class="st14" d="M434.63,537.87c0,0,2.8-2.97,9.83-3.71c7.03-0.75,9.77-0.15,11.19-11.86s-0.84-49.71-5.88-67.85
		c-5.04-18.14-15.5-37.03-23.55-37.51c-8.05-0.48-2.48,18.49-5.69,25.95c-3.21,7.46-11.32-1.91-10.93,18.5
		c0.39,20.41,2.16,74.92,7.5,87.24c2.95,6.8,6.7,8.63,10.42,6.01C431.25,552.02,427.35,540.43,434.63,537.87z"/>
</g>
<g id="robot_right_leg">
	<g>
		<path class="st19" d="M300.78,612.38c0,0,33.76,42.2,61.71,50.64"/>
		<polyline class="st21" points="362.49,638.23 374.1,670.93 330.32,623.99 359.13,676.08 302.89,615.02 311.33,640.87 		"/>
	</g>
	<path class="st11" d="M303.42,610.27c0,0-12.13,0-14.24,21.63c-2.11,21.63,21.63,48,21.63,48"/>
	<g>
		
			<ellipse transform="matrix(0.9956 -0.0938 0.0938 0.9956 -66.9205 41.2146)" class="st13" cx="404.82" cy="732.25" rx="24.92" ry="22.55"/>
		<path class="st20" d="M406.01,920.16c0,0-3.96,5.54,0.79,8.7c4.75,3.16,15.03,15.82,31.65,27.69
			c16.62,11.87,18.2,13.45,22.15,11.08c3.96-2.37,0-14.24-13.45-26.9c-13.45-12.66-21.36-22.95-25.32-23.74
			C417.88,916.21,406.01,920.16,406.01,920.16z"/>
		<path class="st20" d="M384.55,658.49c0,0-5.55-8.12-12.25-12.11c-6.79-4.06-10.38-1.24-18.25,2.14
			c-8.05,3.46-24.2,0.49-38.69-8.46c-14.94-9.23-17.42-17.17-34.1-8.15c-17.45,9.44-0.89,38.9,13.6,56.12
			c14.15,16.81,60.37,51.68,76.27,49.5c15.26-2.09,13.66-5.18,24.7-15.46c10.66-9.93,16.72-10.14,21.84-8.46
			c5.06,1.65,12.35-5.34,10.81-10.44C426.95,698.05,384.55,658.49,384.55,658.49z"/>
	</g>
	<path class="st20" d="M423.42,913.04c0,0-17.5,5.54-20.24,5.54s-8.21-8.21-8.21-8.21s-6.93-75.9-11.49-101.44
		s-6.99-56.07-6.74-59.67s15.17-15.18,27.94-23.39c12.77-8.21,14.73,9.26,21.11,8.35c6.38-0.91,9.13-2.79,11.87,6.33
		c2.74,9.12-4.48,44.88-7.67,86.62C426.58,871.9,423.42,913.04,423.42,913.04z"/>
	<path class="st19" d="M404.82,909.09c-2.74,0-6.73-3.56-6.73-3.56s-5.33-69.41-9.89-94.95s-7.24-47.16-6.99-50.77
		s9.38-6.56,22.15-14.77c12.77-8.21,12.94,35.28,9.76,77.01C409.72,866.78,407.56,909.09,404.82,909.09z"/>
</g>
<g id="torso">
	<g>
		<ellipse class="st13" cx="415.22" cy="437.81" rx="16.9" ry="24.74"/>
		<ellipse class="st22" cx="405.12" cy="438.82" rx="15.14" ry="24.74"/>
		<ellipse class="st23" cx="404.86" cy="438.48" rx="3.17" ry="7.41"/>
	</g>
	<g>
		<path class="st16" d="M247.51,447.81c0,0,17.41,20.04,3.16,33.23"/>
		<path class="st24" d="M253.04,456.32c0,0,17.41,20.04,3.16,33.23"/>
		<path class="st24" d="M252.52,455.92c0,0-0.79,15.23-2.57,32.84"/>
	</g>
	<g>
		<ellipse class="st13" cx="241.16" cy="449.42" rx="14.79" ry="24.74"/>
		<ellipse class="st22" cx="232.33" cy="450.43" rx="13.25" ry="24.74"/>
		<ellipse class="st23" cx="232.09" cy="450.08" rx="2.78" ry="7.41"/>
	</g>
	<path class="st14" d="M330.71,410.36c0,0-6.86,15.43-10.55,6.99c-3.69-8.44,0-52.35,0-52.35l12.13,2.64
		C330.19,375.55,330.71,410.36,330.71,410.36z"/>
	<g>
		<path class="st25" d="M299.73,378.98c0,0-10.02,24.79-0.53,34.81c9.49,10.02,14.77-8.97,14.77-8.97"/>
		<path class="st25" d="M297.62,375.81c0,0-3.69,7.38-1.58,14.77s15.3,12.13,15.3,12.13"/>
		<path class="st25" d="M293.4,376.87c0,0-7.91,13.19-0.53,21.1c7.38,7.91,17.93,2.11,17.93,2.11"/>
	</g>
	<path class="st13" d="M327.68,373.44c0,0-1.58,30.07-3.69,33.76c-2.11,3.69-11.6,2.64-11.6,2.64l-2.11-40.09L327.68,373.44z"/>
	<g>
		<g>
			<line class="st11" x1="331.99" y1="556.52" x2="325.7" y2="616.34"/>
			<path class="st15" d="M369.94,552.25c0,0-9.48,46.61-13.16,60.6"/>
			<line class="st17" x1="362.49" y1="551.86" x2="356.2" y2="611.68"/>
			<line class="st17" x1="353.79" y1="551.86" x2="347.5" y2="611.68"/>
			<line class="st17" x1="324.22" y1="555.74" x2="323.47" y2="615.56"/>
			<line class="st17" x1="338.95" y1="553.02" x2="332.65" y2="612.84"/>
			<line class="st11" x1="347.77" y1="554.58" x2="341.48" y2="614.4"/>
		</g>
		<path class="st15" d="M366.71,561.75c0,0,19.52,27.96,2.11,29.54c-17.41,1.58-25.85-26.37-25.85-26.37"/>
		<path class="st16" d="M359.33,563.84c0,0,0,30.37-11.08,24.61c-11.08-5.76-5.8-27.23-5.8-27.23"/>
	</g>
	<path class="st19" d="M314.49,410.36c0,0-6.86,15.43-10.55,6.99c-3.69-8.44,0-52.35,0-52.35l12.13,2.64
		C313.97,375.55,314.49,410.36,314.49,410.36z"/>
	<path class="st18" d="M320.05,588.7c-4.24,5.02-27.87,4.39-32.46-0.31c-5.28-5.41-8.47-13.28-12.13-28.48
		c-6.86-28.48-5.8-62.77-8.44-80.7c0,0-13.71-8.44-18.46-14.24c-4.75-5.8-7.91-17.93-8.44-31.65c-0.53-13.71,3.69-15.82,14.24-17.93
		c2.97-0.59,9.71-1.9,18.82-3.41c23.21-3.85,61.79-9.03,92.48-7.14c42.73,2.64,42.73,3.69,46.42,22.15
		c3.69,18.46,4.75,23.21,2.11,26.9c-2.64,3.69-6.33,7.91-6.33,7.91s13.19,102.33-13.71,118.68c0,0-3.69,4.75-12.66-3.16
		c-8.97-7.91-13.71-8.44-24.26-7.91c-10.55,0.53-24.79,2.64-33.23,14.24C322.54,585.63,321.23,587.3,320.05,588.7z"/>
	<path class="st19" d="M330.85,570.45c0,0,37.98-11.87,54.59,0.79c16.62,12.66,18.2-7.12,19.78-33.23
		c1.58-26.11-34.02-36.4-48.26-49.85C342.71,474.71,321.35,564.91,330.85,570.45z"/>
	<g>
		<path class="st18" d="M383.83,592.52c0,0-16.41,6.56-26.61,6.68c-10.87,0.13-29.35,4.77-39.56-0.53
			c-10.82-5.61-17.92-6.88-22.31-1.82c-4.49,5.18-1.96,13.95,2.31,22.68c3.74,7.64,29.37,19.56,37.78,22.08
			c8.02,2.4,35.27-2.95,50.96-10.39c14.17-6.72,17.96-12.83,19.82-23.93c1.84-10.95,0.1-23.74-5.23-24.45
			c-5.54-0.74-9.99,2.03-11.23,3.28C388.52,587.38,383.83,592.52,383.83,592.52z"/>
		<path class="st19" d="M397.85,592.64c-2.58,4.19-1.98,8.39-7.25,18.36c-5.47,10.34-33.18,24.29-45.46,22.35
			c-13.25-2.09,1.1,13.22,35.19-1.38c27.74-11.88,25.16-26.27,25.16-33.18S400.38,588.52,397.85,592.64z"/>
	</g>
	<path class="st19" d="M407.59,422.49c0,0,0.79-10.81-16.25-12.49c-11.61-1.14-21.94-1.58-28.92-1.72
		c-1.14-0.02-1.35,1.62-0.23,1.88c11.7,2.73,31.14,8.12,35.51,14.69c3.33,4.99,6.66,12.6,9.08,18.72c0.7,1.78,3.35,1.22,3.28-0.69
		L407.59,422.49z"/>
</g>
<g id="compartment">
	<g>
		<polygon class="st14" points="335.59,440.43 339.81,486.85 397.31,483.42 397.31,437.79 		"/>
		<g>
			<polygon class="st19" points="341.15,441.74 322.43,428.99 318.98,430.14 329.82,499.85 333.39,498.39 345.09,486.85 			"/>
			<polygon class="st14" points="339.83,445.01 323.81,434.1 320.86,435.08 330.14,494.74 333.19,493.5 343.21,483.61 			"/>
			<polygon class="st13" points="337.49,448.01 323.94,438.78 321.44,439.61 329.29,490.06 331.87,489.01 340.34,480.65 			"/>
			<polygon class="st22" points="315.42,430.41 322.43,428.99 332.83,498.78 326.26,500.11 			"/>
		</g>
		<g>
			<polyline class="st26" points="353.26,454.14 352.87,447.55 359.73,447.15 359.73,439.64 			"/>
			<polyline class="st26" points="348.65,464.3 345.22,464.43 346.41,476.43 344.69,476.82 			"/>
			<polyline class="st26" points="359.2,473.53 359.46,479.07 364.21,478.8 364.47,485.26 			"/>
			<line class="st26" x1="368.56" y1="459.68" x2="377.53" y2="459.42"/>
			<g>
				<path class="st13" d="M366.34,473.79l-13.66,0.41c-2.23,0.07-4.18-1.69-4.37-3.93l-0.46-5.44l-0.62-7.22
					c-0.2-2.34,1.49-4.32,3.78-4.41l14.07-0.54c2.32-0.09,4.31,1.77,4.44,4.13l0.68,12.78
					C370.32,471.84,368.59,473.72,366.34,473.79z"/>
				<path class="st22" d="M366.52,471.02l-12.55,0.39c-2.04,0.06-3.84-1.55-4.01-3.62l-0.96-11.67c-0.18-2.16,1.38-3.99,3.49-4.07
					l12.93-0.51c2.13-0.08,3.96,1.62,4.07,3.8l0.59,11.79C370.19,469.22,368.6,470.96,366.52,471.02z"/>
				<path class="st27" d="M362.46,465.52l-5.19,0.17c-0.85,0.03-1.59-0.64-1.65-1.51l-0.35-4.8c-0.06-0.88,0.58-1.61,1.44-1.65
					l5.26-0.19c0.86-0.03,1.61,0.66,1.66,1.54l0.29,4.82C363.96,464.77,363.31,465.5,362.46,465.52z"/>
			</g>
			<line class="st28" x1="377.92" y1="450.19" x2="378.98" y2="476.03"/>
			<line class="st28" x1="388.47" y1="450.19" x2="389.53" y2="476.03"/>
		</g>
	</g>
	<polygon class="st19" points="322.43,428.99 324.38,430.41 334.01,497.79 332.43,498.19 	"/>
</g>
<g id="K_right_arm">
	<path class="st9" d="M508.34,591.57c0,0-5.7,7.48-16.91,2.29c-11.37-5.25-40.6-47.03-52.03-59.57
		c-11.89-13.04-22.26-26-13.71-38.84c7.85-11.78,14.76,3.76,21.73,8.71c6.88,4.89,64.73,62.16,66.87,71.57
		C516.35,584.83,508.34,591.57,508.34,591.57z"/>
	<path class="st29" d="M508.34,591.57c0,0-5.7,7.48-16.91,2.29c-11.37-5.25-30.86-35.4-42.3-47.94l11.87,1.19l19.2-11.36
		c16.58,16.96,32.94,34.94,34.08,39.99C516.35,584.83,508.34,591.57,508.34,591.57z"/>
	<path class="st9" d="M553.97,498.98c0,0-69.1,67.52-72.79,75.43c-3.69,7.91,0.53,15.82,9.49,18.99
		c8.97,3.16,10.02,8.44,34.81-16.35s82.81-65.93,79.65-77.54C601.97,487.9,588.25,469.44,553.97,498.98z"/>
</g>
<g id="K_right_hand">
	<g>
		<path class="st9" d="M436.47,513.88c0,0-15.43,1.58-21.36-2.77c-5.93-4.35-9.1-9.1-11.08-14.64c-1.98-5.54,3.96-35.6,13.05-33.63
			c9.1,1.98,11.87,3.96,16.22,15.03C437.66,488.96,445.57,513.48,436.47,513.88z"/>
		<path class="st29" d="M427.77,488.51c0,0,0,14.74-5.08,14.74c-5.08,0-14.23-1.02-18.81-6.1c-4.58-5.08,6.61-24.4,12.2-22.88
			C421.67,475.8,427.77,488.51,427.77,488.51z"/>
		<path class="st9" d="M405.52,491.53c0.59,1.09,3.96,6.33,3.07,7.52c-1.33,1.78-4.45,3.86-9.2-2.47
			c-4.75-6.33-5.84-12.02-0.3-10.88C402.45,486.38,404.92,490.44,405.52,491.53z"/>
		<path class="st29" d="M406.88,485.62c0,0,7.01,6.83,4.89,8.95c-3.27,3.27-4.7,0.92-7.84-1.75c-4.98-4.24-6.27-7.75-5.54-9.96
			C399.13,480.64,401.34,480.27,406.88,485.62z"/>
		<path class="st9" d="M407.59,484.8c0,0,7.52,7.32,5.24,9.59c-3.51,3.51-5.04,0.99-8.41-1.88c-5.34-4.55-6.73-8.31-5.93-10.68
			S401.66,479.07,407.59,484.8z"/>
		<path class="st29" d="M401.07,473.53c-1.58,3.16-0.99,5.14,2.57,9.1c3.56,3.96,6.13,7.91,8.51,7.12s3.96-2.77,0-9.49
			S402.65,470.36,401.07,473.53z"/>
		<path class="st9" d="M401.26,473.13c-1.58,3.16-0.99,5.14,2.57,9.1c3.56,3.96,6.13,7.91,8.51,7.12c2.37-0.79,3.96-2.77,0-9.49
			C408.38,473.13,402.85,469.97,401.26,473.13z"/>
		<path class="st9" d="M426.58,466.8c0,0-6.26-6.97-11.47-8.7c-4.75-1.58-13.05-3.56-17.8-3.96s-6.33,5.54-3.56,5.93
			c2.77,0.4,12.26,6.33,15.82,6.73c3.56,0.4,8.7,7.91,12.66,5.93C426.19,470.76,426.58,466.8,426.58,466.8z"/>
		<path class="st29" d="M422.82,472.93c0,0-4.95-6.33-10.48-8.51c-4.61-1.81-10.48-3.96-12.46-2.57s3.96,5.54,7.52,7.52
			C410.96,471.35,422.82,472.93,422.82,472.93z"/>
		<g>
			<polygon class="st23" points="381.91,457.38 399.42,457.88 399.68,471.62 382.54,471.48 			"/>
		</g>
		<path class="st29" d="M427.18,494.2c0,0-9.87-1.36-13.95-10.38c-3.1-6.85-4.52-7.86-9.2-10.09c-2.33-1.11-9.24-3.55-6.73-8.11
			c2.65-4.81,15.34,1.3,19.4,3.04C424.31,471.91,443.79,493.43,427.18,494.2z"/>
		<path class="st9" d="M427.37,495.29c0,0-9.67-2.63-13.85-11.87c-3.17-7.01-3.56-7.52-10.55-10.68c-4.68-2.12-8.04-3.56-5.67-8.31
			c2.51-5.03,15.03,1.38,19.19,3.16C424.28,470.93,444.38,494.49,427.37,495.29z"/>
	</g>
</g>
<g id="robot_left_arm">
	<g>
		<path class="st15" d="M239.86,638.1c0,0-9.49-3.16-10.68-27.69s1.58-37.98,1.58-37.98"/>
		<path class="st16" d="M246.58,581.13c0,0-0.4,25.32,0,31.65c0.4,6.33,3.16,32.04,3.16,32.04"/>
		<path class="st17" d="M239.86,571.64c0,0-12.26,38.77,17.41,64.09"/>
		<path class="st16" d="M239.46,592.21c0,0,11.08-0.4,15.43,15.43c4.35,15.82-5.93,31.65-11.08,30.46"/>
		<path class="st15" d="M243.02,634.93c0,0-24.92-27.3,0-56.57"/>
		<path class="st16" d="M258.85,623.46c0,0-10.29-5.93-18.2,2.77c-7.91,8.7-5.14,18.99-5.14,18.99"/>
	</g>
	<g>
		<path class="st13" d="M349.36,673.09c-0.55-5.1,21.48,3.33,26.2,7.99s0.94,8.82-8.32,5.58S349.91,678.2,349.36,673.09z"/>
		<path class="st13" d="M385.28,703.46c2.42-2.03-8.62-6.7-15.98-10.89c-6.73-3.82-23.28-13.42-25.85-8.72
			c-2.57,4.7,19.87,15.44,23.15,17.3S382.86,705.49,385.28,703.46z"/>
		<path class="st13" d="M336.59,707.01c-4.49,1.89,10.51,14.83,14.05,17.27s12.35,5.72,16.37,3.88c4.03-1.84-4.41-6.1-14.12-13.5
			C343.18,707.24,341.08,705.12,336.59,707.01z"/>
		<path class="st13" d="M341.39,699.79c2.63-1.8,8.01-0.36,13.78,3.8c9.35,6.74,19.19,12.73,20.45,15.11
			c2.35,4.44-2.82,8.75-11.91,2.68C354.61,715.33,335.71,703.69,341.39,699.79z"/>
		<path class="st13" d="M347.43,692.35c0,0,20.03,8.41,31.18,16.13c7.82,5.42,0.38,9.58-15.56,0.96
			C347.11,700.83,338.88,691.39,347.43,692.35z"/>
	</g>
	<g>
		<path class="st14" d="M235.47,589.03c0,0-4.08-3.2-13.4-3.2c-9.32,0-12.82,1.07-16.32-12.8c-3.5-13.86-5.83-59.72-1.75-82.12
			s15.15-46.39,25.64-47.99c10.49-1.6,5.83,21.86,11.07,30.4c5.24,8.53,14.57-3.73,16.9,20.8c2.33,24.53,7.61,90.13,2.33,105.58
			c-2.91,8.53-7.58,11.2-12.82,8.53C241.88,605.56,245.37,591.16,235.47,589.03z"/>
		<path class="st13" d="M247.12,480.25c-5.46-1.13-3.93,2.47-9.18-5.53s-10.05,1.27-11.22,19.4c-1.17,18.13-1.17,75.72,4.66,79.99
			c5.83,4.27,13.4,11.73,14.57,17.6c1.17,5.87,2.91,12.26,7.58,10.13c4.66-2.13,5.83-8,5.83-24.53s-3.45-79.3-4.66-83.72
			C252.95,487.18,252.58,481.38,247.12,480.25z"/>
	</g>
	<path class="st18" d="M357.5,687.8c-1.87-2.8-7.24-1.97-6.3-6.3c0.94-4.32,6.2-2.91,2.57-10.5c-3.63-7.59-28.33-16.53-48.95-29.34
		c-20.61-12.81-45.41-32.91-46.77-28.07c-1.36,4.84,1.87,13.06-5.21,17.1c-7.08,4.04-16.31-0.01-19.59,8.79
		c-3.28,8.8,7.01,26,22.79,37.45c15.78,11.45,67.21,35.97,77.1,36.32c9.89,0.35,18.06-6.63,20.81-11.62S359.37,690.6,357.5,687.8z"
		/>
	<g>
		<ellipse class="st13" cx="225.35" cy="606.58" rx="20.31" ry="25.85"/>
		<ellipse class="st14" cx="220.08" cy="607.64" rx="18.2" ry="25.85"/>
		<ellipse class="st18" cx="219.76" cy="607.28" rx="3.81" ry="7.74"/>
	</g>
	<path class="st19" d="M344.21,686.63c0,0-10.27,19.13-11.67,21.46c-1.4,2.33,8.4,4.2,13.53-0.93c5.13-5.13,11.67-11.67,9.8-15.87
		S344.21,686.63,344.21,686.63z"/>
</g>
<g id="robot_head">
	<g>
		<path class="st25" d="M277.5,317.62c0,0-5.22,15.78,4,25c7,7,16.91,1.54,16.91,1.54"/>
		<path class="st25" d="M279.5,319.62c0,0-7,25,0,32s26,4,26,4"/>
		<path class="st30" d="M268,314.12c0,0-5,17,8,21s22-15,22-15"/>
		<path class="st25" d="M278,314.12c0,0-11,9-12,26s21,26,21,26"/>
	</g>
	<g>
		<path class="st14" d="M378,357.12c0,0,1,15-2,20s-6.08,9.39-21,10.96c-19,2-31,2-41,1c-7.24-0.72-35-4.96-35-13.96s-3-16,2-19
			c1.39-0.84,9.19,2.76,20,3C328.98,359.74,378,357.12,378,357.12z"/>
		<path class="st19" d="M296,360.12c1,1,5.79,24.04-1.15,22.71c-6.73-1.29-13.95-2.16-14.34-8.21c-0.89-13.65-3.26-14.54,4.49-16.51
			C293.56,355.95,295,359.12,296,360.12z"/>
		<path class="st19" d="M259,303.12c0,0,1-26,1-33s14-13,33-18s29-5,59,2s31,18,31,25s3,33,1,57s-1.66,23.54-12.54,28.62
			c-7.09,3.31-18.45,5.99-30.59,6.33c-16.54,0.46-39.87-9.89-39.87-9.89s-6.15-2.57-11-15.05c-8.01-20.64-12-26-21-28
			S260,314.12,259,303.12z"/>
		<g>
			<ellipse class="st13" cx="290" cy="355.69" rx="8" ry="12.5"/>
			<ellipse class="st22" cx="288" cy="355.69" rx="7" ry="10.94"/>
		</g>
		<path class="st18" d="M267,267.12c0,0,18.94-0.06,28,9c9,9,5,13,5,32s0,44-3,42s-8-19-17-28s-14-6-16-9S262,271.12,267,267.12z"/>
		<ellipse class="st13" cx="318.69" cy="326.62" rx="5.69" ry="10.5"/>
		<ellipse class="st13" cx="365.69" cy="324.62" rx="5.69" ry="10.5"/>
		<path class="st18" d="M303,273.12c4.5,2.4,52-7,72-2c0,0,3-7-7-10s-33-12-51-11s-51.83,12-46,12C276,262.12,288,265.12,303,273.12
			z"/>
	</g>
</g>
<g id="trunk_1">
	<g>
		<path class="st2" d="M785,891.68c0,0,11.08-25.32,15.03-13.45c3.96,11.87-3.96,22.95-3.96,22.95s13.45-19.78,17.41-11.87
			c3.96,7.91-12.66,16.62-12.66,16.62s24.53-5.54,11.08,2.37c-13.45,7.91-29.27,3.16-29.27,3.16L785,891.68z"/>
		<g>
			<g>
				<path class="st5" d="M627.55,706.93c0,0-1.32,151.95-1.32,154.95s-29.54,47.47-29.54,47.47l-3.46,31.19l63.68,23.37l40.36-5.4
					l43.42,17.84L796.87,941l-4.75-90.99l-6.9-159.29l-53.99,13L627.55,706.93z"/>
				<polygon class="st6" points="631.23,698.72 627.55,707.73 653.23,718.72 697.23,716.72 700.23,724.72 726.23,723.72 
					771.55,714.45 785.22,690.72 712.21,688.34 				"/>
				<polygon class="st7" points="670.01,701.41 667.9,706.58 682.63,712.88 707.86,711.73 709.58,716.32 724.49,715.75 
					750.47,710.43 758.31,696.82 716.45,695.46 				"/>
			</g>
			<polygon class="st8" points="653.23,718.72 697.23,716.72 700.34,724.34 699.02,759.55 703.24,849.75 698.59,856.6 
				697.23,958.41 656.82,963.95 660.12,860.81 661.04,831.81 654.46,802.28 			"/>
			<polygon class="st8" points="771.55,714.45 785.22,690.72 796.87,941 781.84,950.49 			"/>
		</g>
		<path class="st5" d="M672.65,801.48c0,0,7.12,57.76,3.96,49.05C673.44,841.84,672.65,801.48,672.65,801.48z"/>
		<path class="st5" d="M682.14,727.11c0,0-0.79,20.57,0,30.86c0.79,10.29,0.79,34.81,0.79,34.81l3.16-34.02L682.14,727.11z"/>
		<polygon class="st5" points="662.89,827.59 665.26,859.24 675.55,874.27 673.97,902.76 665.26,918.58 670.8,898.01 670.8,872.69 
			662.1,860.03 		"/>
		<polygon class="st5" points="777.09,721.57 780.25,742.93 779.46,778.54 783.42,806.23 784.21,778.54 784.21,745.31 		"/>
		<polygon class="st8" points="764.43,958.14 753.35,933.62 756.52,901.97 750.98,856.08 763.64,902.76 758.1,934.41 769.18,955.77 
					"/>
		<polygon class="st8" points="769.97,887.73 762.05,854.49 763.64,814.14 754.14,790.41 760.47,791.2 769.97,816.52 766.01,852.12 
					"/>
		<polygon class="st8" points="641.66,715.85 636.62,716.28 633.88,731.53 638.52,760.68 634.63,798.32 643.28,760.24 
			638.58,730.76 		"/>
		<polyline class="st8" points="712.46,737.6 710.44,773.18 718.76,793.11 720.12,845 724.19,794.46 715.49,770.51 713.57,734.53 		
			"/>
		<polygon class="st5" points="685.84,959.46 692.69,958.93 689.26,916.21 694.8,869.53 686.89,889.31 684.52,916.21 		"/>
		<polygon class="st8" points="642.58,959.73 644.96,926.49 631.51,895.64 636.25,860.82 626.76,894.05 641,928.08 636.25,957.35 		
			"/>
		<path class="st2" d="M592.34,943.9c0,0-10.29-10.29-6.33-16.62s8.7,7.12,8.7,7.12s5.54-15.82,7.91-10.29
			c2.37,5.54-2.37,17.41-2.37,17.41s10.29-18.99,13.45-9.49c3.16,9.49-2.37,15.03-2.37,15.03s16.62-11.08,15.82-2.37
			c-0.79,8.7-1.98,7.52-1.98,7.52L592.34,943.9z"/>
		<path class="st1" d="M637.84,960.91c0,0-11.87-11.87-4.75-18.2c7.12-6.33,4.75,3.96,4.75,3.96s3.16-22.95,8.7-16.62
			c5.54,6.33-3.16,17.41-3.16,17.41s11.87-11.08,11.87-4.75s-10.29,12.66-10.29,12.66s18.99-7.12,14.24,0
			C654.45,962.49,637.84,960.91,637.84,960.91z"/>
	</g>
	<g>
		<path class="st1" d="M680.96,946.01c-0.13,1.85,5.54,14.24,13.45,7.91c7.91-6.33,0-18.2-6.33-15.03
			C681.75,942.05,681.09,944.16,680.96,946.01z"/>
		<path class="st1" d="M688.34,916.74c0.92,1.58,9.49,9.49,15.03,0c5.54-9.49-3.16-12.66-10.29-9.49
			C685.97,910.41,687.42,915.15,688.34,916.74z"/>
		<path class="st1" d="M707.07,940.47c6.33-6.33-0.79-15.03-8.7-11.87C690.45,931.77,700.74,946.8,707.07,940.47z"/>
		<path class="st2" d="M705.48,940.47c0,0-1.58,7.91,4.75,5.54C716.56,943.64,713.4,936.52,705.48,940.47z"/>
		<path class="st1" d="M696.52,955.24c0.26,9.23,8.18,7.91,8.97,0.53C706.27,948.38,696.25,946.01,696.52,955.24z"/>
	</g>
	<g>
		<path class="st1" d="M700.6,891.95c0.26,3.03,3.69,12.53,11.6,6.2c7.91-6.33-1.05-14.37-4.75-15.16S700.34,888.91,700.6,891.95z"
			/>
		<path class="st1" d="M704.3,860.96c0,0,9.49,9.49,15.03,0s-3.16-12.66-10.29-9.49C701.92,854.63,704.3,860.96,704.3,860.96z"/>
		<path class="st1" d="M724.87,884.69c6.33-6.33-0.79-15.03-8.7-11.87C708.25,875.99,718.54,891.02,724.87,884.69z"/>
		<path class="st1" d="M723.29,884.69c0,0-1.58,7.91,4.75,5.54C734.36,887.86,731.2,880.74,723.29,884.69z"/>
		<path class="st2" d="M706.41,912.38c0.26,9.23,8.18,7.91,8.97,0.53C716.16,905.53,706.14,903.15,706.41,912.38z"/>
	</g>
	<g>
		<path class="st2" d="M622.01,838.8c1.58,5.54,12.13,9.23,9.23-2.11C628.34,825.35,620.43,833.26,622.01,838.8z"/>
		<path class="st2" d="M639.42,824.03c-7.91,0-12.92,11.87,2.9,8.97C658.14,830.1,647.33,824.03,639.42,824.03z"/>
		<path class="st2" d="M642.58,779.73c-6.07-1.85-18.73,6.07-8.7,8.18C643.9,790.01,648.65,781.57,642.58,779.73z"/>
		<path class="st2" d="M630.98,793.97c-5.01-0.53-12.13,7.91,0,7.65C643.11,801.35,635.99,794.49,630.98,793.97z"/>
		<path class="st2" d="M630.45,807.95c-3.96,4.75-0.26,16.62,6.86,8.44C644.43,808.21,634.41,803.2,630.45,807.95z"/>
	</g>
	<path class="st1" d="M701.13,966.05c0,0,18.2-3.16,24.53-0.79c6.33,2.37,6.33,2.37,6.33,2.37s7.91-8.7,11.87-7.12
		c3.96,1.58-3.16,7.12-3.16,7.12s21.36-16.62,19.78-11.87s-10.29,11.87-10.29,11.87s27.69-27.16,31.65-17.14
		c3.96,10.02,0.79,10.02,0.79,10.02s1.58-24.53,9.49-21.36c7.91,3.16,0,7.91,0,7.91s34.02,21.36-15.03,30.86
		C728.03,987.42,701.13,966.05,701.13,966.05z"/>
	<g>
		<path class="st2" d="M802.55,951.9c0,0-21.5-28.35-13.58-28.35S808.21,954.14,802.55,951.9z"/>
		<path class="st2" d="M804.81,951.09c0,0-3.4-33.95,9.05-26.03S807.08,961.28,804.81,951.09z"/>
		<path class="st2" d="M843.29,941.66c0,0,9.05-27.16,11.32-13.58C856.87,941.66,843.29,941.66,843.29,941.66z"/>
		<path class="st2" d="M839.9,942.41c0,0-9.05-16.98,1.13-20.37C851.21,918.65,842.16,945.81,839.9,942.41z"/>
		<path class="st2" d="M791.23,966.56c0,0-6.79-26.03-13.58-16.98C770.86,958.63,782.18,971.08,791.23,966.56z"/>
		<path class="st2" d="M794.63,965.43c0,0-12.45-18.11-4.53-23.77S794.63,965.43,794.63,965.43z"/>
	</g>
</g>
<g id="K_left_leg">
	<g>
		<path class="st3" d="M499.92,922.09c0,0-8.75-1.75-21.87,1.75c-13.12,3.5-11.37,14-10.5,16.62c0.87,2.62,12.25,7.87,37.62,6.12
			c25.37-1.75,26.02-3.3,40.24-2.62c15.48,0.73,8.75-24.5,4.37-32.37C545.41,903.72,499.92,922.09,499.92,922.09z"/>
		<path class="st4" d="M501.75,909.88c0,0-7.45-1.92-20.57,1.58c-13.12,3.5-14.5,20.55-13.62,23.18c0.87,2.62,12.25,7.87,37.62,6.12
			c25.37-1.75,30.16-0.52,44.25-2.62c7.76-1.16,4.74-24.5,0.37-32.37C545.41,897.9,501.75,909.88,501.75,909.88z"/>
	</g>
	<path class="st31" d="M688.63,628.02c0,0,15.01,39.94,9.83,59.26s-15.56,23.4-35.27,26.45c-7.04,1.09-28.92,0.85-54.24-1.26
		c-26.43-2.2-44.81-30.21-30.81-62.9C599.93,598.72,682.41,616.84,688.63,628.02z"/>
	<path class="st31" d="M572.76,650c0,0-36,3-56,4s-53,0-58,17s-2,49,30,48s135.37,1.42,153.43-12.86
		C660.24,691.87,647.76,649,572.76,650z"/>
	<path class="st31" d="M469.76,675c0,0-11.47,1.34-10.74,19.67C459.76,713,474.76,756,473.76,766s9,68,12,91s4.13,38.13,9.13,48.13
		s-6.05,11.69,16.95,11.69c23,0,34.92-0.82,38.92-3.82s1-28,1-28s-5-12-5-14s3-60,0-75s-11.98-77.79-29.98-95.79
		S469.76,675,469.76,675z"/>
	<path class="st32" d="M486.71,709.7c0,0-28.43-33.36-27.69-15.03C459.76,713,474.76,756,473.76,766s9,68,12,91
		s4.13,38.13,9.13,48.13s-6.05,11.69,16.95,11.69c23,0,34.92-0.82,38.92-3.82s-26.07-6.68-26.07-6.68s-2.37-13.43-2.37-15.43
		s-16.78-38.8-19.78-53.8s1.19-62.51,4.75-79.52C510.85,740.56,486.71,709.7,486.71,709.7z"/>
</g>
<g id="necklace">
	<g>
		<path class="st33" d="M520.83,502.75c-14.03,22.06,11.69,89.04,21.83,84.58c8.51-3.75,24.98-67.08,18.83-88.71
			c-1.18-4.14-4.94-8.86-7.99-9.24"/>
		
			<ellipse transform="matrix(0.9975 -0.0704 0.0704 0.9975 -40.4015 39.6354)" class="st34" cx="542.42" cy="593.31" rx="3.74" ry="7.62"/>
	</g>
</g>
<g id="K_torso">
	<path class="st29" d="M517,468c2,1,19,27,19,27l37-18l-17-28L517,468z"/>
	<path class="st10" d="M574,647c0,0-6-27-9-32s-23.46-32.09-35.3-50.09c-25-38-18.99-54.33-18.99-54.33s17.27-26.26,41.27-36.26
		S596,466,602,468s23.97,10.27,33,25c8.43,13.74,37,54,43,84s10.47,53.19,10.47,53.19S656,645,639,647S574,647,574,647z"/>
	<path class="st35" d="M581.66,501.22c0,0,14.34-35.22,20.34-33.22s23.97,10.27,33,25c8.43,13.74,37,54,43,84
		s12.32,52.26,12.32,52.26S656,645,639,647c-6.92,0.81-31.23-29.87-31.23-29.87l9.49-32.44L581.66,501.22z"/>
	<path class="st29" d="M547,525.1c5.71,15.15,3.75,30.33-4.38,33.9s-23.91-17.93-29.62-33.08c-5.71-15.15,0.8-18.21,8.94-21.78
		C530.07,500.57,541.29,509.95,547,525.1z"/>
	<path class="st35" d="M612.52,587.07c0,0-18.99-47.47-26.11-59.34c0,0,10.29,39.56,22.15,66.46
		C613.56,605.52,612.52,587.07,612.52,587.07z"/>
</g>
<g id="K_left_arm">
	<g>
		<path class="st9" d="M449.92,563.33c-19-7-64.75-32.6-76.75-35.6s-16.58,1.01-12.26,13.85c4.32,12.84,30.31,27.77,44.31,38.77
			s44.13,24.64,55.13,18.64S468.92,570.33,449.92,563.33z"/>
	</g>
	<g>
		<path class="st29" d="M410.23,570.98c-20.04-6.33-49.32-29.41-49.32-29.41c4.32,12.84,30.31,27.77,44.31,38.77
			s44.13,24.64,55.13,18.64S430.27,577.31,410.23,570.98z"/>
	</g>
	<path class="st9" d="M367.77,548.56c5.14-2.18,12.4-15.56,6.86-32.18c-1.35-4.06-10.01-13.59-12.53-17.47
		c-3.03-4.68-3.69-9.56-8.11-13.65c-5-4.62-7.58,0.66-6.4,6.2c0.59,2.75,4.09,8.44,5.01,12.13c0.92,3.69,0.66,5.27,0.66,5.27
		s-9.63-5.41-13.45-9.1c-3.82-3.69-6.2-2.37-6.99-7.25c-0.99-6.13-4.95-10.09-8.9-9.69c-3.96,0.4-3.96,1.98-1.78,12.33
		c0,0-5.35,2.6-3.96,6.73c1.38,4.09,3.56,6.66,3.56,6.66s-3.65,0.53-2.37,3.96c0.43,1.14,4.35,6.07,5.34,7.12
		c0,0-1.03-0.28-1.98,2.11s10.92,14.82,14.44,17.87C341.13,543.02,362.63,550.74,367.77,548.56z"/>
	<path class="st9" d="M462.78,598.14C473.07,592.57,502,577,519,561s32.36-27.51,23.36-42.51s-14.9-18.6-26.9-11.6
		c-4.76,2.77-17.92,19.67-29.01,29.01c-16.9,14.23-33.94,27.26-39.3,32.18C435.29,578.96,443.79,608.43,462.78,598.14z"/>
	<path class="st29" d="M462.78,598.14C473.07,592.57,502,577,519,561s32.36-27.51,23.36-42.51s-14.9-18.6-26.9-11.6
		c-4.76,2.77-17.92,19.67-29.01,29.01c-16.9,14.23-32.62,27.26-37.98,32.18C436.6,578.96,443.79,608.43,462.78,598.14z"/>
	<path class="st9" d="M456.38,578.1c10.29-5.57,14.65-6.15,31.65-22.15s39.43-56.05,27.43-49.05c-4.76,2.77-17.92,19.67-29.01,29.01
		c-16.9,14.23-32.62,27.26-37.98,32.18C436.6,578.96,437.4,588.38,456.38,578.1z"/>
	<path class="st29" d="M335.2,510.32l-8.87-9.43l-4.19-5.74c-0.1-0.36-1.02,1.35,3.46,7.35C326.59,503.82,335.2,510.32,335.2,510.32
		z"/>
	<path class="st29" d="M321.55,508.41c0,0,6.79,9.82,8.77,11.4c0,0-7.98-7.81-9.16-10.88L321.55,508.41z"/>
</g>
<g id="K_head">
	<path class="st29" d="M535,390c0,0-43.87-10.27-49.87,17.73s-1.63,57.77,1.37,65.77s16,6,33,3s28-8,29-27S552,390,535,390z"/>
	<path class="st9" d="M521.92,409.6c0,0-32.12-7.52-36.51,12.98c-4.39,20.5-1.19,42.3,1,48.16c2.2,5.86,11.72,4.39,24.16,2.2
		s20.5-5.86,21.23-19.77C532.53,439.25,534.36,409.6,521.92,409.6z"/>
	<path class="st32" d="M547,405c0,0-41,15-58,4s-10-17,7-27s32-11,47-3S560,403,547,405z"/>
	<path class="st36" d="M498.58,390.32c0,0,7.42,29.68-9.58,18.68s-10-17,7-27C508.67,375.62,507.48,377.4,498.58,390.32z"/>
	<path class="st32" d="M511,406l-2,27h8c0,0,14,25,24,30c4,2.48,15.65,2.08,23.65-2.92S574,439,575,422s6.85-26.64-18-37
		C521,370,511,406,511,406z"/>
	<path class="st9" d="M514.61,435.32c0,0-1.81-11.76,10.86-15.38s9.95,12.66,7.24,19.9c-2.71,7.24-9.56,12.65-15.38,9.95
		C504.58,443.88,514.61,435.32,514.61,435.32z"/>
</g>
<g id="K_face">
	<path class="st13" d="M490.92,429.21c0.17,2.9-1.12,4.25-2.57,4.33s-2.51-1.12-2.68-4.02s0.86-5.31,2.31-5.4
		C489.43,424.04,490.75,426.31,490.92,429.21z"/>
	<path class="st37" d="M494.8,419.64c0,0-2.84-5.11-7.45-3.72"/>
</g>
</svg>
